<svg width="24" height="24" viewBox="0 0 24 24" fill="none" xmlns="http://www.w3.org/2000/svg">
<path d="M18.75 12C18.75 11.5858 18.4142 11.25 18 11.25H6C5.58579 11.25 5.25 11.5858 5.25 12" stroke="#F0D675" stroke-width="1.5" stroke-linecap="round" stroke-linejoin="round"/>
<path fill-rule="evenodd" clip-rule="evenodd" d="M4.5 20.25C5.94975 20.25 7.125 19.0747 7.125 17.625C7.125 16.1753 5.94975 15 4.5 15C3.05025 15 1.875 16.1753 1.875 17.625C1.875 19.0747 3.05025 20.25 4.5 20.25Z" stroke="#F0D675" stroke-width="1.5" stroke-linecap="round" stroke-linejoin="round"/>
<path d="M8.25 23.25C7.51138 21.8651 6.06958 21 4.5 21C2.93042 21 1.48862 21.8651 0.75 23.25" stroke="#F0D675" stroke-width="1.5" stroke-linecap="round" stroke-linejoin="round"/>
<path fill-rule="evenodd" clip-rule="evenodd" d="M19.5 20.25C20.9497 20.25 22.125 19.0747 22.125 17.625C22.125 16.1753 20.9497 15 19.5 15C18.0503 15 16.875 16.1753 16.875 17.625C16.875 19.0747 18.0503 20.25 19.5 20.25Z" stroke="#F0D675" stroke-width="1.5" stroke-linecap="round" stroke-linejoin="round"/>
<path d="M23.25 23.25C22.5114 21.8651 21.0696 21 19.5 21C17.9304 21 16.4886 21.8651 15.75 23.25" stroke="#F0D675" stroke-width="1.5" stroke-linecap="round" stroke-linejoin="round"/>
<path fill-rule="evenodd" clip-rule="evenodd" d="M12 6C13.4497 6 14.625 4.82475 14.625 3.375C14.625 1.92525 13.4497 0.75 12 0.75C10.5503 0.75 9.375 1.92525 9.375 3.375C9.375 4.82475 10.5503 6 12 6Z" stroke="#F0D675" stroke-width="1.5" stroke-linecap="round" stroke-linejoin="round"/>
<path d="M15.249 8.25C14.4379 7.29767 13.2499 6.74901 11.999 6.74901C10.7481 6.74901 9.56012 7.29767 8.74902 8.25" stroke="#F0D675" stroke-width="1.5" stroke-linecap="round" stroke-linejoin="round"/>
</svg>
