<svg width="24" height="24" viewBox="0 0 24 24" fill="none" xmlns="http://www.w3.org/2000/svg">
<path d="M19 8.75C19.4142 8.75 19.75 8.41421 19.75 8C19.75 7.58579 19.4142 7.25 19 7.25V8.75ZM11 7.25C10.5858 7.25 10.25 7.58579 10.25 8C10.25 8.41421 10.5858 8.75 11 8.75V7.25ZM19 7.25H11V8.75H19V7.25Z" fill="#1E293B"/>
<path d="M13 16.75C13.4142 16.75 13.75 16.4142 13.75 16C13.75 15.5858 13.4142 15.25 13 15.25V16.75ZM5 15.25C4.58579 15.25 4.25 15.5858 4.25 16C4.25 16.4142 4.58579 16.75 5 16.75V15.25ZM13 15.25H5V16.75H13V15.25Z" fill="#1E293B"/>
<circle cx="7" cy="8" r="3.5" stroke="#1E293B" stroke-width="1.5"/>
<circle cx="17" cy="16" r="3.5" stroke="#1E293B" stroke-width="1.5"/>
</svg>
