<svg width="622" height="176" viewBox="0 0 622 176" fill="none" xmlns="http://www.w3.org/2000/svg">
<g clip-path="url(#clip0_0_3755)">
<g opacity="0.28">
<path d="M271.98 617.854C264.754 635.494 272.798 652.982 288.211 652.143C319.926 650.421 381.346 574.185 374.42 560.781C367.596 547.577 287.054 581.041 271.98 617.854Z" stroke="#CBD5E1" stroke-width="2" stroke-miterlimit="10"/>
<path d="M269.433 553.693C287.881 515.342 406.416 538.507 403.46 574.917C401.643 597.305 371.062 625.315 343.791 645.826C318.19 665.081 273.17 684.155 243.718 670.516C228.093 663.264 214.31 644.455 217.469 629.881C219.916 618.603 231.166 611.326 232.475 608.548C246.26 602.848 249.261 602.99 257.971 596.176C269.357 587.271 264.359 564.239 269.433 553.693Z" stroke="#CBD5E1" stroke-width="2" stroke-miterlimit="10"/>
<path d="M263.4 490.031C301.651 462.316 440.978 529.958 429.014 589.553C421.396 627.507 374.974 660.534 339.266 680.204C306.466 698.273 239.534 716.046 195.739 689.388C170.289 673.9 147.548 639.054 156.561 613.383C163.747 592.923 187.265 580.819 190.841 578.122C219.353 569.561 225.927 573.137 243.145 562.751C265.938 548.994 247.404 501.603 263.4 490.031Z" stroke="#CBD5E1" stroke-width="2" stroke-miterlimit="10"/>
<path d="M255.511 428.69C301.638 401.983 473.598 523.646 452.709 606.506C439.225 659.981 377.065 698.151 332.881 716.9C292.915 733.864 204.242 750.151 145.9 710.577C110.713 686.713 78.9322 636.037 93.7896 599.206C105.725 569.608 141.309 552.15 147.341 550.02C189.517 535.132 200.72 545.613 226.469 531.634C260.693 513.086 231.364 442.687 255.511 428.69Z" stroke="#CBD5E1" stroke-width="2" stroke-miterlimit="10"/>
<path d="M247.588 370.53C301.927 344.209 505.972 520.433 476.374 626.643C456.877 695.583 379.132 739.007 326.473 756.78C279.33 772.696 168.987 787.435 96.016 734.96C51.1612 702.704 10.2834 636.226 30.9703 588.214C47.6756 549.475 95.6183 527.376 103.793 525.095C161.304 509.05 175.499 521.343 209.729 503.735C255.39 480.39 215.065 386.288 247.588 370.53Z" stroke="#CBD5E1" stroke-width="2" stroke-miterlimit="10"/>
<path d="M-32.5382 578.789C-11.0718 530.925 49.1899 504.189 59.5587 501.742C132.261 484.593 149.511 498.521 192.292 477.37C249.339 449.165 198.005 331.029 238.935 313.938C301.806 287.687 538.009 518.888 499.307 648.349C474.053 732.822 380.465 781.476 319.327 798.228C265.033 813.109 133.064 826.254 45.4279 760.89C-9.07692 720.229 -59.0815 637.967 -32.5382 578.789Z" stroke="#CBD5E1" stroke-width="2" stroke-miterlimit="10"/>
<path d="M318.495 179.595C304.726 193.136 264.664 185.825 272.955 169.624C277.74 160.263 300.085 145.155 313.879 144.238C333.298 142.939 327.973 170.28 318.495 179.595Z" stroke="#CBD5E1" stroke-width="2" stroke-miterlimit="10"/>
<path d="M256.947 192.266C255.105 187.751 259.95 180.082 261.789 170.502C265.514 151.065 263.443 145.671 266.93 132.708C268.288 127.648 270.171 120.9 275.499 117.8C283.658 113.054 292.655 118.831 313.854 123.651C341.376 129.937 349.767 130.287 355.692 142.278C357.067 145.068 362.898 152.729 361.899 161.957C360.506 174.728 347.811 178.634 341.199 192.777C333.251 209.755 335.109 223.97 326.149 225.827C319.837 227.136 312.845 220.426 298.063 211.351C286.803 204.437 279.474 199.84 271.967 197.618C263.006 194.996 258.994 197.287 256.947 192.266Z" stroke="#CBD5E1" stroke-width="2" stroke-miterlimit="10"/>
<path d="M242.7 219.763C237.297 213.897 243.419 202.321 242.569 186.886C240.821 155.229 221.958 150.222 221.743 126.032C221.649 115.765 224.613 102.766 233.585 95.7386C246.319 85.7677 261.863 93.6845 303.122 99.9896C357.065 108.234 372.888 104.59 387.324 123.294C390.265 127.108 402.808 140.499 401.683 157.234C400.183 179.552 376.438 184.357 365.616 210.825C353.512 240.387 364.389 266.835 353.502 269.998C345.941 272.195 337.01 259.526 312.196 242.212C294.57 229.894 284.179 222.784 271.706 220.924C255.971 218.581 248.57 226.132 242.7 219.763Z" stroke="#CBD5E1" stroke-width="2" stroke-miterlimit="10"/>
<path d="M228.36 247.209C219.381 240.036 226.779 224.518 223.253 203.217C215.996 159.363 180.245 155.165 176.459 119.302C174.842 103.955 179.028 84.5928 191.578 73.6257C208.971 58.4239 230.977 68.3849 292.321 76.2533C372.691 86.317 395.791 79.1399 418.893 104.228C423.396 109.123 442.642 128.188 441.413 152.439C439.792 184.298 404.951 190.014 389.979 228.795C373.698 270.963 393.611 309.607 380.789 314.109C371.967 317.176 361.037 298.631 326.26 273.009C302.243 255.313 288.843 245.723 271.374 244.169C248.86 242.169 238.025 254.942 228.36 247.209Z" stroke="#CBD5E1" stroke-width="2" stroke-miterlimit="10"/>
<path d="M213.954 274.685C201.42 266.203 210.045 246.759 203.873 219.58C191.054 163.554 138.46 160.276 131.116 112.603C127.966 92.2137 133.4 66.4557 149.508 51.5398C171.581 31.1042 200.007 43.2598 281.445 52.5621C388.208 64.635 418.625 53.8435 450.372 85.2231C456.428 91.2071 482.351 115.938 481.046 147.703C479.267 189.107 433.376 195.705 414.249 246.829C393.767 301.589 422.743 352.457 408.013 358.253C397.936 362.202 384.998 337.767 340.261 303.84C309.842 280.771 293.458 268.703 270.981 267.444C241.695 265.811 227.432 283.806 213.954 274.685Z" stroke="#CBD5E1" stroke-width="2" stroke-miterlimit="10"/>
<path d="M199.505 302.197C216.803 312.712 234.482 289.495 270.537 290.764C298.029 291.729 317.389 306.268 354.213 334.713C408.896 376.954 423.854 407.273 435.182 402.44C451.838 395.337 413.793 332.246 438.485 264.89C461.747 201.437 518.784 193.946 520.647 142.995C522.08 103.714 489.451 73.3486 481.815 66.2419C441.39 28.6223 403.681 42.986 270.521 28.907C168.986 18.1738 134.155 3.82074 107.387 29.4992C87.7248 48.3608 81.0388 80.5297 85.7207 105.948C96.659 165.445 166.16 167.769 184.452 235.98C193.315 269.034 183.411 292.417 199.505 302.197Z" stroke="#CBD5E1" stroke-width="2" stroke-miterlimit="10"/>
<path d="M596.854 352.501C591.484 354.258 587.482 365.22 592.241 371.303C597.641 378.202 611.194 374.823 613.334 369.523C615.861 363.25 603.972 350.163 596.854 352.501Z" stroke="#CBD5E1" stroke-width="2" stroke-miterlimit="10"/>
<path d="M639.568 375.134C639.961 363.381 632.192 350.303 617.361 329.398C602.654 308.672 589.497 296.46 585.931 298.184C583.992 299.129 583.794 307.099 583.138 313.45C581.896 325.324 570.08 335.96 567.778 339.412C559.351 352.053 560.17 359.06 563.262 370.958C564.686 376.457 567.609 388.885 574.547 400.007C585.032 416.872 574.947 435.385 582.171 439.123C588.212 442.233 603.489 429.177 612.804 420.121C626.155 407.143 638.949 393.296 639.568 375.134Z" stroke="#CBD5E1" stroke-width="2" stroke-miterlimit="10"/>
<path d="M665.365 379.877C665.199 359.744 652.093 338.782 626.287 300.878C600.424 262.723 578.43 240.807 574.583 243.016C571.685 244.662 572.239 259.934 571.641 271.844C570.559 294.34 547.694 313.683 544.032 318.718C527.262 341.616 529.716 353.845 535.905 375.408C538.482 384.39 543.784 407.262 556.418 427.901C575.743 459.548 553.207 495.43 565.073 502.462C574.96 508.311 603.254 482.431 619.651 464.74C642.78 439.738 665.653 413.903 665.365 379.877Z" stroke="#CBD5E1" stroke-width="2" stroke-miterlimit="10"/>
<path d="M691.007 384.576C690.292 356.058 671.791 327.247 635.053 272.318C597.98 216.772 567.236 185.166 563.058 187.791C559.221 190.183 560.513 212.73 560.006 230.196C559.141 263.311 525.167 291.354 520.12 297.955C494.882 330.971 499.048 348.555 508.387 379.792C512.111 392.256 519.8 425.569 538.114 455.723C566.292 502.146 531.296 555.394 547.8 565.728C561.537 574.313 602.902 535.651 626.32 509.277C659.309 472.345 692.259 434.447 691.007 384.576Z" stroke="#CBD5E1" stroke-width="2" stroke-miterlimit="10"/>
<path d="M716.606 389.3C715.351 352.388 691.448 315.729 643.777 243.776C595.512 170.832 556.03 129.544 551.494 132.58C546.742 135.749 548.718 165.529 548.313 188.551C547.596 232.281 502.58 269.02 496.17 277.206C462.411 320.29 468.266 343.307 480.823 384.191C485.669 400.149 495.77 443.892 519.773 483.557C556.792 544.762 509.34 615.379 530.491 629.006C548.066 640.327 602.448 588.829 632.954 553.832C675.703 504.9 718.843 455.012 716.606 389.3Z" stroke="#CBD5E1" stroke-width="2" stroke-miterlimit="10"/>
<path d="M472.195 256.464C429.901 309.594 437.586 338.029 453.241 388.595C459.259 408.036 471.72 462.223 501.406 511.4C547.286 587.378 487.366 675.37 513.155 692.293C534.598 706.368 601.967 642.01 639.563 598.393C692.087 537.441 745.415 475.577 742.187 394.03C740.39 348.72 711.09 304.227 652.483 215.24C592.999 124.92 544.788 73.9569 539.906 77.3818C534.247 81.3545 536.898 118.316 536.599 146.909C536.024 201.255 479.975 246.691 472.195 256.464Z" stroke="#CBD5E1" stroke-width="2" stroke-miterlimit="10"/>
<path d="M-60.5346 499.628C-34.3479 514.98 -5.21848 466.339 87.8492 466.83C121.198 467.006 149.853 473.419 174.532 454.193C177.021 452.252 201.418 432.666 202.822 403.028C204.589 365.742 168.034 353.023 156.464 295.874C152.2 274.823 157.272 277.102 153.452 260.96C137.137 192.06 53.7821 188.907 33.6512 122.499C24.385 91.9306 35.6467 71.5244 31.5412 70.4286C13.8881 65.7653 -131.139 458.302 -60.5346 499.628Z" stroke="#CBD5E1" stroke-width="2" stroke-miterlimit="10"/>
<path d="M152.158 419.78C153.308 418.27 168.892 404.853 168.857 384.924C168.832 359.744 142.513 351.357 133.497 313.519C130.173 299.59 133.249 301.191 130.199 290.593C117.182 245.372 58.9895 244.978 44.6359 202.321C37.989 182.576 45.3021 169.213 42.4759 169.462C29.645 170.542 -60.9659 434.754 -9.26117 458.589C10.1288 467.529 33.6247 433.98 96.7713 431.853C119.724 431.071 140.207 435.482 152.158 419.78Z" stroke="#CBD5E1" stroke-width="2" stroke-miterlimit="10"/>
<path d="M129.781 385.364C129.206 384.031 136.317 376.961 134.893 366.821C133.05 353.662 117.032 349.694 110.532 331.168C108.145 324.368 109.217 325.259 106.95 320.224C97.1907 298.576 64.1909 301.091 55.6207 282.137C51.5719 273.231 54.9817 267.612 53.4317 268.469C45.8806 278.519 9.47229 411.11 41.9971 417.565C54.7019 420.091 72.5552 401.509 105.678 396.891C118.268 395.137 126.931 394.409 129.781 385.364Z" stroke="#CBD5E1" stroke-width="2" stroke-miterlimit="10"/>
<path d="M107.406 350.951C89.0848 341.972 66.0542 355.72 64.3664 367.503C61.8873 384.888 80.0639 386.12 93.2615 376.534C103.115 369.359 128.374 361.228 107.406 350.951Z" stroke="#CBD5E1" stroke-width="2" stroke-miterlimit="10"/>
</g>
</g>
<defs>
<clipPath id="clip0_0_3755">
<rect width="622" height="176" fill="white"/>
</clipPath>
</defs>
</svg>
