<svg width="315" height="200" viewBox="0 0 315 200" fill="none" xmlns="http://www.w3.org/2000/svg">
<g opacity="0.28">
<path d="M-259.474 -47.8957C-277.057 -40.5314 -283.735 -22.4782 -272.243 -12.1724C-248.6 9.03516 -151.262 -1.44098 -146.682 -15.8163C-142.17 -29.9788 -222.785 -63.2671 -259.474 -47.8957Z" stroke="#CBD5E1" stroke-width="2" stroke-miterlimit="10"/>
<path d="M-215.907 -95.0656C-175.744 -109.139 -108.307 -8.94147 -136.143 14.7137C-153.258 29.2593 -194.689 27.4416 -228.476 22.6612C-260.194 18.1745 -305.515 -0.17243 -316.696 -30.6428C-322.617 -46.8188 -319.063 -69.8652 -306.524 -77.9362C-296.819 -84.181 -283.718 -81.3714 -280.828 -82.4101C-267.051 -76.6932 -265.029 -74.4711 -254.052 -73.1302C-239.704 -71.3764 -226.952 -91.1962 -215.907 -95.0656Z" stroke="#CBD5E1" stroke-width="2" stroke-miterlimit="10"/>
<path d="M-175.157 -144.347C-128.512 -136.898 -77.8233 9.45228 -128.422 43.1323C-160.647 64.5825 -216.826 55.111 -255.984 43.7708C-291.954 33.3543 -351.849 -1.4069 -363.967 -51.2246C-371.011 -80.171 -362.452 -120.892 -337.927 -132.671C-318.378 -142.057 -293.189 -133.986 -288.754 -133.364C-262.539 -119.257 -260.419 -112.08 -240.9 -107.249C-215.055 -100.859 -194.651 -147.476 -175.157 -144.347Z" stroke="#CBD5E1" stroke-width="2" stroke-miterlimit="10"/>
<path d="M-137.361 -193.301C-85.8592 -179.568 -50.2934 28.0546 -123.655 71.8744C-171.003 100.153 -241.947 83.1891 -286.447 65.204C-326.703 48.9387 -400.92 -2.24542 -414.192 -71.4828C-422.198 -113.238 -408.837 -171.544 -372.288 -187.081C-342.92 -199.571 -305.413 -186.754 -299.641 -183.995C-259.291 -164.699 -258.781 -149.366 -230.689 -141.044C-193.374 -129.959 -164.333 -200.478 -137.361 -193.301Z" stroke="#CBD5E1" stroke-width="2" stroke-miterlimit="10"/>
<path d="M-101.837 -240.028C-44.8027 -220.216 -25.13 48.6747 -121.161 102.847C-183.695 137.808 -269.375 113.54 -319.178 88.872C-363.767 66.7918 -452.213 -0.810891 -466.706 -89.5147C-475.615 -144.04 -457.512 -219.953 -408.935 -239.274C-369.73 -254.854 -320.204 -236.58 -312.81 -232.412C-260.798 -203.091 -259.453 -184.361 -222.798 -172.608C-174.003 -156.828 -135.977 -251.883 -101.837 -240.028Z" stroke="#CBD5E1" stroke-width="2" stroke-miterlimit="10"/>
<path d="M-447.178 -290.846C-398.154 -309.512 -336.637 -285.806 -327.576 -280.204C-264.041 -240.922 -261.692 -218.876 -216.486 -203.581C-156.203 -183.186 -108.967 -303.02 -67.9401 -286.163C-4.921 -260.269 -1.38403 70.2356 -120.293 134.412C-197.881 176.286 -298.462 144.513 -353.539 113.127C-402.453 85.2579 -505.064 1.23661 -520.812 -106.951C-530.602 -174.243 -507.792 -267.77 -447.178 -290.846Z" stroke="#CBD5E1" stroke-width="2" stroke-miterlimit="10"/>
<path d="M83.3124 -324.9C64.0015 -325.062 40.8429 -358.559 58.1619 -364.153C68.1642 -367.388 94.647 -362.271 105.049 -353.166C119.7 -340.353 96.6007 -324.785 83.3124 -324.9Z" stroke="#CBD5E1" stroke-width="2" stroke-miterlimit="10"/>
<path d="M30.832 -359.462C32.7218 -363.957 41.5708 -365.953 49.645 -371.428C66.0233 -382.538 68.3728 -387.816 80.0053 -394.517C84.5425 -397.135 90.6461 -400.574 96.6049 -398.999C105.73 -396.585 108.008 -386.139 119.589 -367.741C134.605 -343.835 140.292 -337.654 136.001 -324.986C135.001 -322.04 133.707 -312.5 126.476 -306.681C116.461 -298.636 104.722 -304.851 90.0459 -299.525C72.4205 -293.14 63.6823 -281.774 56.0337 -286.798C50.6452 -290.335 50.4452 -300.024 46.4102 -316.893C43.3372 -329.745 41.4048 -338.177 37.6677 -345.057C33.1858 -353.247 28.7294 -354.464 30.832 -359.462Z" stroke="#CBD5E1" stroke-width="2" stroke-miterlimit="10"/>
<path d="M1.31452 -350.092C1.64226 -358.061 14.1558 -361.918 24.4689 -373.433C45.6185 -397.054 35.8205 -413.932 52.7734 -431.189C59.9666 -438.515 71.2543 -445.611 82.5676 -444.236C98.6224 -442.283 104.015 -425.694 128.732 -392.06C161.046 -348.087 174.811 -339.476 171.793 -316.042C171.176 -311.266 170.576 -292.927 157.947 -281.889C141.105 -267.169 120.917 -280.561 94.5492 -269.498C65.0869 -257.153 54.0758 -230.761 44.1416 -236.222C37.2421 -240.015 39.8853 -255.289 34.5819 -285.078C30.8278 -306.251 28.5081 -318.626 21.0042 -328.761C11.5339 -341.545 0.96125 -341.438 1.31452 -350.092Z" stroke="#CBD5E1" stroke-width="2" stroke-miterlimit="10"/>
<path d="M-28.2329 -340.825C-29.5098 -352.246 -13.306 -357.989 -0.737055 -375.544C25.1414 -411.684 2.82973 -439.933 25.5117 -467.968C35.2203 -479.964 51.8711 -490.695 68.5005 -489.576C91.5485 -488.026 100.065 -465.423 137.878 -416.482C187.592 -352.536 209.002 -341.276 207.597 -307.201C207.32 -300.556 207.448 -273.465 189.431 -257.187C165.757 -235.805 137.078 -256.4 99.0694 -239.564C57.7406 -221.259 44.4949 -179.853 32.2452 -185.736C23.839 -189.806 29.2232 -210.647 22.7493 -253.356C18.2802 -282.852 15.5859 -299.108 4.33221 -312.56C-10.1733 -329.894 -26.8666 -328.523 -28.2329 -340.825Z" stroke="#CBD5E1" stroke-width="2" stroke-miterlimit="10"/>
<path d="M-57.8483 -331.584C-60.7128 -346.444 -40.8656 -354.094 -26.011 -377.677C4.54083 -426.358 -30.3312 -465.865 -1.81385 -504.769C10.3762 -521.413 32.4325 -535.784 54.3696 -534.941C84.4277 -533.783 95.9325 -505.088 146.94 -440.925C213.896 -356.895 243.035 -343.017 243.295 -298.38C243.346 -289.867 244.189 -254.05 220.804 -232.51C190.27 -204.492 153.154 -232.276 103.479 -209.651C50.275 -185.413 34.7948 -128.954 20.2807 -135.271C10.3635 -139.605 18.493 -166.031 10.8487 -221.655C5.65171 -259.477 2.59993 -279.595 -12.4036 -296.38C-31.9571 -318.243 -54.7668 -315.604 -57.8483 -331.584Z" stroke="#CBD5E1" stroke-width="2" stroke-miterlimit="10"/>
<path d="M-87.5191 -322.346C-82.7223 -302.68 -53.8048 -306.596 -29.2076 -280.204C-10.45 -260.082 -7.04066 -236.112 -1.11587 -189.959C7.68195 -121.424 -3.18019 -89.4083 8.24803 -84.8152C25.0477 -78.0596 42.7583 -149.574 107.846 -179.743C169.162 -208.161 214.79 -173.127 252.135 -207.838C280.925 -234.6 279.324 -279.144 278.95 -289.569C276.966 -344.754 240.145 -361.262 155.942 -465.376C91.7358 -544.761 77.2557 -579.54 40.1704 -580.31C12.93 -580.876 -14.5446 -562.857 -29.2076 -541.573C-63.5433 -491.768 -16.0428 -440.98 -51.3404 -379.814C-68.4466 -350.173 -91.984 -340.642 -87.5191 -322.346Z" stroke="#CBD5E1" stroke-width="2" stroke-miterlimit="10"/>
<path d="M157.879 -5.80848C152.839 -8.36258 142.258 -3.44166 141.322 4.22489C140.262 12.9216 152.235 20.1156 157.496 17.8808C163.719 15.233 164.566 -2.42856 157.879 -5.80848Z" stroke="#CBD5E1" stroke-width="2" stroke-miterlimit="10"/>
<path d="M172.078 40.3994C180.667 32.3668 184.421 17.6254 188.716 -7.64319C192.972 -32.6989 192.304 -50.6372 188.563 -51.9398C186.524 -52.6421 180.748 -47.1465 175.794 -43.1196C166.519 -35.602 150.643 -36.4363 146.574 -35.6233C131.677 -32.6435 127.301 -27.1096 121.075 -16.5101C118.193 -11.6147 111.472 -0.759842 108.514 12.0106C104.002 31.3494 83.7807 37.3089 86.2451 45.0606C88.3179 51.531 108.352 53.1019 121.343 53.2849C139.96 53.5488 158.798 52.8038 172.078 40.3994Z" stroke="#CBD5E1" stroke-width="2" stroke-miterlimit="10"/>
<path d="M186.967 61.9943C201.085 47.6403 206.639 23.5509 215.194 -21.4992C223.886 -66.7663 223.831 -97.8156 219.549 -98.9735C216.335 -99.8589 205.928 -88.6677 197.084 -80.6691C180.412 -65.5276 150.567 -68.0178 144.416 -67.0473C116.367 -62.7138 109.455 -52.3314 98.5842 -32.7074C94.0554 -24.5343 81.6312 -4.61229 75.9703 18.9152C67.2576 54.9578 25.9501 64.3952 29.3679 77.7574C32.2239 88.8847 70.5307 90.5917 94.6343 89.6765C128.668 88.3526 163.11 86.2582 186.967 61.9943Z" stroke="#CBD5E1" stroke-width="2" stroke-miterlimit="10"/>
<path d="M201.774 83.4487C221.434 62.7776 228.725 29.3232 241.588 -35.4956C254.651 -100.987 255.259 -145.075 250.45 -146.173C246.044 -147.195 231.015 -130.338 218.306 -118.346C194.279 -95.5424 150.426 -99.7354 142.19 -98.6371C100.998 -93.1373 91.5101 -77.7574 76.0256 -49.0664C69.8454 -37.6198 51.7263 -8.62643 43.3541 25.6453C30.4532 78.396 -31.9444 91.3027 -27.5817 110.28C-23.9383 126.064 32.6495 127.975 67.8577 125.885C117.299 123.097 167.396 119.598 201.774 83.4487Z" stroke="#CBD5E1" stroke-width="2" stroke-miterlimit="10"/>
<path d="M216.535 104.89C241.75 77.9021 250.769 35.0784 267.939 -49.5091C285.39 -135.216 286.667 -192.33 281.312 -193.39C275.711 -194.509 256.051 -172.055 239.485 -156.062C208.057 -125.647 150.247 -131.5 139.926 -130.244C85.5896 -123.65 73.4548 -103.235 53.4246 -65.4467C45.5674 -50.735 21.7788 -12.6619 10.7039 32.3583C-6.39799 101.813 -89.8857 118.193 -84.5653 142.785C-80.143 163.218 -5.27437 165.257 41.0429 162.081C105.871 157.709 171.652 152.937 216.535 104.89Z" stroke="#CBD5E1" stroke-width="2" stroke-miterlimit="10"/>
<path d="M137.64 -161.864C70.1647 -154.202 55.4932 -128.661 30.8065 -81.8354C21.3149 -63.8333 -8.18984 -16.7059 -21.9718 39.0585C-43.2534 125.225 -147.844 145.075 -141.574 175.277C-136.365 200.392 -43.2194 202.521 14.2069 198.264C94.447 192.304 175.9 186.268 231.279 126.324C262.048 93.0139 272.791 40.8336 294.273 -63.5311C316.078 -169.458 318.023 -239.585 312.149 -240.615C305.339 -241.807 281.078 -213.797 260.648 -193.79C221.813 -155.768 150.052 -163.273 137.64 -161.864Z" stroke="#CBD5E1" stroke-width="2" stroke-miterlimit="10"/>
<path d="M-410.999 -366.617C-403.338 -337.245 -348.346 -351.042 -282.884 -284.886C-259.428 -261.18 -243.701 -236.384 -212.655 -232.527C-209.522 -232.14 -178.421 -228.739 -156.471 -248.703C-128.856 -273.819 -145.712 -308.661 -113.483 -357.252C-101.612 -375.152 -99.6368 -369.955 -90.9242 -384.07C-53.741 -444.326 -110.452 -505.496 -77.7296 -566.688C-62.6665 -594.856 -40.274 -601.322 -42.4021 -605C-51.5872 -620.78 -431.702 -445.765 -410.999 -366.617Z" stroke="#CBD5E1" stroke-width="2" stroke-miterlimit="10"/>
<path d="M-204.142 -272.682C-202.261 -272.937 -181.754 -271.405 -167.687 -285.521C-149.9 -303.344 -162.579 -327.884 -142.2 -361.015C-134.7 -373.215 -133.658 -369.908 -128.32 -379.558C-105.549 -420.739 -146.418 -462.166 -126.405 -502.478C-117.143 -521.14 -102.523 -525.418 -104.698 -527.24C-114.534 -535.55 -365.431 -412.795 -345.725 -359.381C-338.336 -339.348 -297.998 -346.457 -251.843 -303.31C-235.06 -287.632 -223.696 -270.03 -204.142 -272.682Z" stroke="#CBD5E1" stroke-width="2" stroke-miterlimit="10"/>
<path d="M-195.63 -312.841C-195.093 -314.19 -185.065 -314.16 -178.902 -322.338C-170.9 -332.946 -179.422 -347.079 -170.917 -364.774C-167.798 -371.27 -167.67 -369.882 -165.712 -375.046C-157.306 -397.254 -182.418 -418.81 -175.076 -438.273C-171.641 -447.433 -165.257 -448.996 -166.959 -449.485C-179.405 -447.719 -298.905 -379.707 -280.471 -352.144C-273.273 -341.374 -247.51 -341.889 -220.823 -321.733C-210.68 -314.071 -204.04 -308.461 -195.63 -312.841Z" stroke="#CBD5E1" stroke-width="2" stroke-miterlimit="10"/>
<path d="M-187.117 -352.996C-193.723 -372.3 -219.729 -378.864 -229.255 -371.726C-243.3 -361.186 -231.319 -347.462 -215.209 -344.908C-203.168 -343.013 -179.558 -330.903 -187.117 -352.996Z" stroke="#CBD5E1" stroke-width="2" stroke-miterlimit="10"/>
</g>
</svg>
