<svg width="167" height="62" viewBox="0 0 167 62" fill="none" xmlns="http://www.w3.org/2000/svg">
<g clip-path="url(#clip0_38_238)">
<path d="M31.6212 59.8239C38.8757 59.8239 42.3941 56.1622 42.3941 51.8781C42.3941 42.4675 27.6312 45.7264 27.6312 41.0029C27.6312 39.3918 28.9733 38.0735 32.4555 38.0735C34.7043 38.0735 37.1345 38.7327 39.4922 40.0875L41.3058 35.5836C38.9482 34.0823 35.6837 33.3134 32.4916 33.3134C25.2734 33.3134 21.7913 36.9384 21.7913 41.2959C21.7913 50.8162 36.5542 47.5207 36.5542 52.3174C36.5542 53.8919 35.1395 55.0637 31.6575 55.0637C28.6106 55.0637 25.4186 53.9652 23.2784 52.3906L21.2834 56.8579C23.5324 58.6156 27.5949 59.8239 31.6212 59.8239Z" fill="#0C0C0D"/>
<path d="M130.39 33.7528H119.399V59.3845H125.275V52.3174H130.39C137.172 52.3174 141.417 48.7656 141.417 43.0535C141.417 37.3046 137.172 33.7528 130.39 33.7528ZM130.063 47.4841H125.275V38.5862H130.063C133.654 38.5862 135.469 40.234 135.469 43.0535C135.469 45.8363 133.654 47.4841 130.063 47.4841Z" fill="#0C0C0D"/>
<path d="M152.747 54.6243V48.6924H164.536V44.0788H152.747V38.513H166.095V33.7528H146.908V59.3845H166.567V54.6243H152.747Z" fill="#0C0C0D"/>
<path d="M60.9411 59.8239C65.3663 59.8239 69.0299 58.2127 71.4238 55.2468L67.6515 51.7316C65.9466 53.7455 63.8066 54.7708 61.2676 54.7708C56.5159 54.7708 53.1425 51.402 53.1425 46.5686C53.1425 41.7353 56.5159 38.3665 61.2676 38.3665C63.8066 38.3665 65.9466 39.3918 67.6515 41.3691L71.4238 37.8538C69.0299 34.9244 65.3663 33.3134 60.9773 33.3134C53.07 33.3134 47.1938 38.8425 47.1938 46.5686C47.1938 54.2948 53.07 59.8239 60.9411 59.8239Z" fill="#0C0C0D"/>
<path d="M88.4525 59.8239C96.4324 59.8239 102.345 54.2216 102.345 46.5686C102.345 38.9157 96.4324 33.3134 88.4525 33.3134C80.4362 33.3134 74.5601 38.9524 74.5601 46.5686C74.5601 54.1849 80.4362 59.8239 88.4525 59.8239ZM88.4525 54.7708C83.9183 54.7708 80.5087 51.4387 80.5087 46.5686C80.5087 41.6986 83.9183 38.3665 88.4525 38.3665C92.9865 38.3665 96.3961 41.6986 96.3961 46.5686C96.3961 51.4387 92.9865 54.7708 88.4525 54.7708Z" fill="#0C0C0D"/>
<path d="M110.875 59.4106L112.844 57.7106C114.528 56.2198 114.917 55.3305 114.917 54.2844C114.917 52.2704 113.103 50.9104 110.279 50.9104C107.792 50.9104 106.16 51.8781 105.383 53.2642L107.896 54.6243C108.31 53.9443 109.036 53.552 109.968 53.552C111.005 53.552 111.445 53.9966 111.445 54.5458C111.445 54.9643 111.238 55.409 110.331 56.1936L106.03 59.9337V62H115.28V59.4106H110.875Z" fill="#0C0C0D"/>
<path d="M0 25.481H5.8701V0.429443H0V25.481Z" fill="#0C0C0D"/>
<path d="M41.7733 25.481L41.7009 0.429443H36.8815L27.533 15.9972L18.0393 0.429443H13.1838V25.481H18.6915V10.7722L26.1198 22.8327H28.765L36.2294 10.4501L36.2655 25.481H41.7733Z" fill="#0C0C0D"/>
<path d="M60.0644 0.429443H49.0852V25.481H54.9553V18.5739H60.0644C66.8403 18.5739 71.0798 15.1025 71.0798 9.51957C71.0798 3.90087 66.8403 0.429443 60.0644 0.429443ZM59.7384 13.8499H54.9553V5.15345H59.7384C63.3256 5.15345 65.1374 6.76391 65.1374 9.51957C65.1374 12.2395 63.3256 13.8499 59.7384 13.8499Z" fill="#0C0C0D"/>
<path d="M94.2419 25.481H100.402L89.0604 0.429443H83.2627L71.9573 25.481H77.9723L80.2189 20.1128H91.9953L94.2419 25.481ZM82.1032 15.7109L86.1253 6.11973L90.1473 15.7109H82.1032Z" fill="#0C0C0D"/>
<path d="M116.113 25.9104C120.533 25.9104 124.193 24.3358 126.584 21.437L122.816 18.0013C121.113 19.9697 118.975 20.9718 116.439 20.9718C111.692 20.9718 108.322 17.6792 108.322 12.9553C108.322 8.23122 111.692 4.93873 116.439 4.93873C118.975 4.93873 121.113 5.94079 122.816 7.87334L126.584 4.4377C124.193 1.57467 120.533 0 116.149 0C108.25 0 102.379 5.40397 102.379 12.9553C102.379 20.5065 108.25 25.9104 116.113 25.9104Z" fill="#0C0C0D"/>
<path d="M136.85 25.481H142.719V5.15345H150.836V0.429443H128.732V5.15345H136.85V25.481Z" fill="#0C0C0D"/>
</g>
<defs>
<clipPath id="clip0_38_238">
<rect width="166.625" height="62" fill="white"/>
</clipPath>
</defs>
</svg>
