<svg width="58" height="58" viewBox="0 0 58 58" fill="none" xmlns="http://www.w3.org/2000/svg">
<path fill-rule="evenodd" clip-rule="evenodd" d="M56.5303 1.21109C57.3789 1.91817 57.4936 3.17929 56.7866 4.02788L31.6052 34.2492L31.6051 34.2494C30.5021 35.5729 28.8479 36.3103 27.1263 36.2461C25.4047 36.1819 23.81 35.3234 22.8086 33.9215C22.8086 33.9215 22.8086 33.9215 22.8086 33.9214L15.1226 23.1625C14.4806 22.2637 14.6887 21.0146 15.5875 20.3725C16.4862 19.7305 17.7354 19.9386 18.3774 20.8374L26.0634 31.5964L26.0635 31.5964C26.3445 31.9899 26.7921 32.2309 27.2753 32.2489C27.7584 32.2669 28.2226 32.06 28.5322 31.6887C28.5322 31.6886 28.5323 31.6885 28.5323 31.6885L53.7135 1.46733C54.4206 0.618737 55.6817 0.504012 56.5303 1.21109Z" fill="#1E293B"/>
<path fill-rule="evenodd" clip-rule="evenodd" d="M9.75 8.25C6.98858 8.25 4.75 10.4886 4.75 13.25V48.25C4.75 51.0114 6.98858 53.25 9.75 53.25H44.75C47.5114 53.25 49.75 51.0114 49.75 48.25V25.5C49.75 24.3954 50.6454 23.5 51.75 23.5C52.8546 23.5 53.75 24.3954 53.75 25.5V48.25C53.75 53.2206 49.7206 57.25 44.75 57.25H9.75C4.77944 57.25 0.75 53.2206 0.75 48.25V13.25C0.75 8.27944 4.77944 4.25 9.75 4.25H39.5C40.6046 4.25 41.5 5.14543 41.5 6.25C41.5 7.35457 40.6046 8.25 39.5 8.25H9.75Z" fill="#1E293B"/>
</svg>
