<svg width="20" height="24" viewBox="0 0 20 24" fill="none" xmlns="http://www.w3.org/2000/svg">
<path fill-rule="evenodd" clip-rule="evenodd" d="M0.25 2.25C0.25 1.00736 1.25736 0 2.5 0H17.5C18.7426 0 19.75 1.00736 19.75 2.25V21.75C19.75 22.9926 18.7426 24 17.5 24H2.5C1.25736 24 0.25 22.9926 0.25 21.75V2.25ZM2.5 1.5C2.08579 1.5 1.75 1.83579 1.75 2.25V21.75C1.75 22.1642 2.08579 22.5 2.5 22.5H17.5C17.9142 22.5 18.25 22.1642 18.25 21.75V2.25C18.25 1.83579 17.9142 1.5 17.5 1.5H2.5Z" fill="#1E293B"/>
<path fill-rule="evenodd" clip-rule="evenodd" d="M5.5 0C5.91421 0 6.25 0.335786 6.25 0.75V23.25C6.25 23.6642 5.91421 24 5.5 24C5.08579 24 4.75 23.6642 4.75 23.25V0.75C4.75 0.335786 5.08579 0 5.5 0Z" fill="#1E293B"/>
<path fill-rule="evenodd" clip-rule="evenodd" d="M10 6C9.58579 6 9.25 6.33579 9.25 6.75C9.25 7.16421 9.58579 7.5 10 7.5H14.5C14.9142 7.5 15.25 7.16421 15.25 6.75C15.25 6.33579 14.9142 6 14.5 6H10ZM7.75 6.75C7.75 5.50736 8.75736 4.5 10 4.5H14.5C15.7426 4.5 16.75 5.50736 16.75 6.75C16.75 7.99264 15.7426 9 14.5 9H10C8.75736 9 7.75 7.99264 7.75 6.75Z" fill="#1E293B"/>
</svg>
