<svg width="24" height="24" viewBox="0 0 24 24" fill="none" xmlns="http://www.w3.org/2000/svg">
<path fill-rule="evenodd" clip-rule="evenodd" d="M4.84938 12C4.92945 12.143 5.03649 12.3267 5.16973 12.5394C5.50514 13.075 6.0016 13.7868 6.64586 14.4955C7.94981 15.9298 9.76334 17.25 12 17.25C14.2367 17.25 16.0502 15.9298 17.3541 14.4955C17.9984 13.7868 18.4949 13.075 18.8303 12.5394C18.9635 12.3267 19.0705 12.143 19.1506 12C19.0705 11.857 18.9635 11.6733 18.8303 11.4606C18.4949 10.925 17.9984 10.2132 17.3541 9.5045C16.0502 8.07016 14.2367 6.75 12 6.75C9.76334 6.75 7.94981 8.07016 6.64586 9.5045C6.0016 10.2132 5.50514 10.925 5.16973 11.4606C5.03649 11.6733 4.92945 11.857 4.84938 12ZM20 12C20.6749 11.6728 20.6747 11.6725 20.6746 11.6723L20.6734 11.6699L20.6709 11.6648L20.6627 11.6482C20.6558 11.6343 20.646 11.6148 20.6334 11.5902C20.6081 11.541 20.5714 11.4709 20.5235 11.383C20.4277 11.2074 20.2866 10.9599 20.1015 10.6644C19.7324 10.075 19.1834 9.28681 18.464 8.4955C17.0407 6.92984 14.8542 5.25 12 5.25C9.14575 5.25 6.95928 6.92984 5.53595 8.4955C4.81658 9.28681 4.26759 10.075 3.89845 10.6644C3.71341 10.9599 3.57233 11.2074 3.47652 11.383C3.42859 11.4709 3.3919 11.541 3.36663 11.5902C3.354 11.6148 3.34421 11.6343 3.33729 11.6482L3.32906 11.6648L3.32656 11.6699L3.32571 11.6716C3.32558 11.6719 3.32514 11.6728 4 12L3.32514 11.6728C3.22495 11.8794 3.22495 12.1206 3.32514 12.3272L4 12C3.32514 12.3272 3.32501 12.3269 3.32514 12.3272L3.32656 12.3301L3.32906 12.3352L3.33729 12.3518C3.34421 12.3657 3.354 12.3852 3.36663 12.4098C3.3919 12.459 3.42859 12.5291 3.47652 12.617C3.57233 12.7926 3.71341 13.0401 3.89845 13.3356C4.26759 13.925 4.81658 14.7132 5.53595 15.5045C6.95928 17.0702 9.14575 18.75 12 18.75C14.8542 18.75 17.0407 17.0702 18.464 15.5045C19.1834 14.7132 19.7324 13.925 20.1015 13.3356C20.2866 13.0401 20.4277 12.7926 20.5235 12.617C20.5714 12.5291 20.6081 12.459 20.6334 12.4098C20.646 12.3852 20.6558 12.3657 20.6627 12.3518L20.6709 12.3352L20.6734 12.3301L20.6743 12.3284C20.6744 12.3281 20.6749 12.3272 20 12ZM20 12L20.6749 12.3272C20.775 12.1206 20.7748 11.8789 20.6746 11.6723L20 12Z" fill="#1E293B"/>
<path fill-rule="evenodd" clip-rule="evenodd" d="M12 10.75C11.3096 10.75 10.75 11.3096 10.75 12C10.75 12.6904 11.3096 13.25 12 13.25C12.6904 13.25 13.25 12.6904 13.25 12C13.25 11.3096 12.6904 10.75 12 10.75ZM9.25 12C9.25 10.4812 10.4812 9.25 12 9.25C13.5188 9.25 14.75 10.4812 14.75 12C14.75 13.5188 13.5188 14.75 12 14.75C10.4812 14.75 9.25 13.5188 9.25 12Z" fill="#1E293B"/>
</svg>
