<svg width="24" height="24" viewBox="0 0 24 24" fill="none" xmlns="http://www.w3.org/2000/svg">
<path fill-rule="evenodd" clip-rule="evenodd" d="M4.5 12C4.5 11.1716 5.17157 10.5 6 10.5H18C18.8284 10.5 19.5 11.1716 19.5 12C19.5 12.4142 19.1642 12.75 18.75 12.75C18.3358 12.75 18 12.4142 18 12H6C6 12.4142 5.66421 12.75 5.25 12.75C4.83579 12.75 4.5 12.4142 4.5 12Z" fill="#1E293B"/>
<path fill-rule="evenodd" clip-rule="evenodd" d="M1.125 17.625C1.125 15.761 2.63604 14.25 4.5 14.25C6.36396 14.25 7.875 15.761 7.875 17.625C7.875 19.489 6.36396 21 4.5 21C2.63604 21 1.125 19.489 1.125 17.625ZM4.5 15.75C3.46447 15.75 2.625 16.5895 2.625 17.625C2.625 18.6605 3.46447 19.5 4.5 19.5C5.53553 19.5 6.375 18.6605 6.375 17.625C6.375 16.5895 5.53553 15.75 4.5 15.75Z" fill="#1E293B"/>
<path fill-rule="evenodd" clip-rule="evenodd" d="M0.0882613 22.8971C0.957231 21.2677 2.65347 20.25 4.50003 20.25C6.34659 20.25 8.04282 21.2677 8.91179 22.8971C9.10671 23.2625 8.96845 23.7168 8.60297 23.9118C8.23748 24.1067 7.78319 23.9684 7.58826 23.6029C6.97998 22.4624 5.79262 21.75 4.50003 21.75C3.20743 21.75 2.02007 22.4624 1.41179 23.6029C1.21687 23.9684 0.762567 24.1067 0.397085 23.9118C0.0316022 23.7168 -0.106663 23.2625 0.0882613 22.8971Z" fill="#1E293B"/>
<path fill-rule="evenodd" clip-rule="evenodd" d="M16.125 17.625C16.125 15.761 17.636 14.25 19.5 14.25C21.364 14.25 22.875 15.761 22.875 17.625C22.875 19.489 21.364 21 19.5 21C17.636 21 16.125 19.489 16.125 17.625ZM19.5 15.75C18.4645 15.75 17.625 16.5895 17.625 17.625C17.625 18.6605 18.4645 19.5 19.5 19.5C20.5355 19.5 21.375 18.6605 21.375 17.625C21.375 16.5895 20.5355 15.75 19.5 15.75Z" fill="#1E293B"/>
<path fill-rule="evenodd" clip-rule="evenodd" d="M15.0884 22.8971C15.9574 21.2677 17.6536 20.25 19.5001 20.25C21.3467 20.25 23.0429 21.2677 23.9119 22.8971C24.1068 23.2625 23.9686 23.7168 23.6031 23.9118C23.2376 24.1067 22.7833 23.9684 22.5884 23.6029C21.9801 22.4624 20.7927 21.75 19.5001 21.75C18.2076 21.75 17.0202 22.4624 16.4119 23.6029C16.217 23.9684 15.7627 24.1067 15.3972 23.9118C15.0317 23.7168 14.8935 23.2625 15.0884 22.8971Z" fill="#1E293B"/>
<path fill-rule="evenodd" clip-rule="evenodd" d="M8.625 3.375C8.625 1.51104 10.136 0 12 0C13.864 0 15.375 1.51104 15.375 3.375C15.375 5.23896 13.864 6.75 12 6.75C10.136 6.75 8.625 5.23896 8.625 3.375ZM12 1.5C10.9645 1.5 10.125 2.33947 10.125 3.375C10.125 4.41053 10.9645 5.25 12 5.25C13.0355 5.25 13.875 4.41053 13.875 3.375C13.875 2.33947 13.0355 1.5 12 1.5Z" fill="#1E293B"/>
<path fill-rule="evenodd" clip-rule="evenodd" d="M8.17806 7.76372C9.13165 6.64408 10.5283 5.99902 11.999 5.99902C13.4697 5.99902 14.8664 6.64408 15.82 7.76372C16.0886 8.07906 16.0507 8.55242 15.7353 8.82099C15.42 9.08957 14.9466 9.05166 14.6781 8.73631C14.0095 7.95129 13.0302 7.49902 11.999 7.49902C10.9679 7.49902 9.98861 7.95129 9.32001 8.73631C9.05144 9.05166 8.57808 9.08957 8.26274 8.82099C7.9474 8.55242 7.90949 8.07906 8.17806 7.76372Z" fill="#1E293B"/>
</svg>
