<svg width="25" height="22" viewBox="0 0 25 22" fill="none" xmlns="http://www.w3.org/2000/svg">
<path fill-rule="evenodd" clip-rule="evenodd" d="M3.75403 12.1731C4.16824 12.1731 4.50403 12.5089 4.50403 12.9231V20.4231H9.00403V15.1731C9.00403 13.9305 10.0114 12.9231 11.254 12.9231H12.754C13.9967 12.9231 15.004 13.9305 15.004 15.1731V20.4231H19.504V12.9231C19.504 12.5089 19.8398 12.1731 20.254 12.1731C20.6682 12.1731 21.004 12.5089 21.004 12.9231V21.1731C21.004 21.5873 20.6682 21.9231 20.254 21.9231H14.254C13.8398 21.9231 13.504 21.5873 13.504 21.1731V15.1731C13.504 14.7589 13.1682 14.4231 12.754 14.4231H11.254C10.8398 14.4231 10.504 14.7589 10.504 15.1731V21.1731C10.504 21.5873 10.1682 21.9231 9.75403 21.9231H3.75403C3.33981 21.9231 3.00403 21.5873 3.00403 21.1731V12.9231C3.00403 12.5089 3.33981 12.1731 3.75403 12.1731Z" fill="#1E293B"/>
<path fill-rule="evenodd" clip-rule="evenodd" d="M11.4743 1.76448C11.4743 1.7645 11.4743 1.76447 11.4743 1.76448L1.28433 11.9534C0.991425 12.2463 0.516551 12.2463 0.223672 11.9534C-0.0692066 11.6605 -0.0691833 11.1856 0.223724 10.8927L10.4137 0.703718C11.2923 -0.174641 12.7167 -0.174695 13.5953 0.703664L23.7844 10.8927C24.0773 11.1856 24.0773 11.6605 23.7844 11.9534C23.4915 12.2463 23.0166 12.2463 22.7237 11.9534L12.5348 1.76448C12.5348 1.76446 12.5348 1.76451 12.5348 1.76448C12.2419 1.4718 11.7671 1.47178 11.4743 1.76448Z" fill="#1E293B"/>
<path fill-rule="evenodd" clip-rule="evenodd" d="M15.754 3.1731C15.754 2.75888 16.0898 2.4231 16.504 2.4231H20.254C20.6682 2.4231 21.004 2.75888 21.004 3.1731V8.4231C21.004 8.83731 20.6682 9.1731 20.254 9.1731C19.8398 9.1731 19.504 8.83731 19.504 8.4231V3.9231H17.254V4.6731C17.254 5.08731 16.9182 5.4231 16.504 5.4231C16.0898 5.4231 15.754 5.08731 15.754 4.6731V3.1731Z" fill="#1E293B"/>
</svg>
