<svg width="24" height="24" viewBox="0 0 24 24" fill="none" xmlns="http://www.w3.org/2000/svg">
<path fill-rule="evenodd" clip-rule="evenodd" d="M0 12.0039C0 11.5897 0.335786 11.2539 0.75 11.2539H16.5C16.9142 11.2539 17.25 11.5897 17.25 12.0039C17.25 12.4181 16.9142 12.7539 16.5 12.7539H0.75C0.335786 12.7539 0 12.4181 0 12.0039Z" fill="#1E293B"/>
<path fill-rule="evenodd" clip-rule="evenodd" d="M12.2197 7.72358C12.5126 7.43068 12.9874 7.43068 13.2803 7.72358L17.0303 11.4736C17.3232 11.7665 17.3232 12.2413 17.0303 12.5342L13.2803 16.2842C12.9874 16.5771 12.5126 16.5771 12.2197 16.2842C11.9268 15.9913 11.9268 15.5165 12.2197 15.2236L15.4393 12.0039L12.2197 8.78424C11.9268 8.49134 11.9268 8.01647 12.2197 7.72358Z" fill="#1E293B"/>
<path fill-rule="evenodd" clip-rule="evenodd" d="M2.82351 6.70456C5.27338 2.11733 10.5481 -0.192906 15.5808 1.11707C20.6136 2.42705 24.0925 7.01578 23.995 12.2153C23.8975 17.4148 20.2488 21.8699 15.1705 22.9902C10.0922 24.1105 4.90782 21.604 2.63173 16.9281C2.45044 16.5557 2.60539 16.1068 2.97782 15.9255C3.35026 15.7442 3.79914 15.8992 3.98043 16.2716C5.95304 20.3241 10.4461 22.4963 14.8474 21.5254C19.2486 20.5544 22.4107 16.6934 22.4953 12.1872C22.5798 7.68092 19.5647 3.70402 15.203 2.5687C10.8413 1.43339 6.26986 3.43559 4.14664 7.41119C3.95151 7.77657 3.49713 7.91457 3.13176 7.71944C2.76639 7.52431 2.62838 7.06993 2.82351 6.70456Z" fill="#1E293B"/>
</svg>
