<svg width="24" height="24" viewBox="0 0 24 24" fill="none" xmlns="http://www.w3.org/2000/svg">
<g clip-path="url(#clip0_314_12809)">
<path d="M11.775 18.5C6.275 18.5 3.175 12.3 3.075 12.1C2.975 11.9 2.975 11.6 3.075 11.4C3.975 9.6 5.375 8 6.975 6.7C7.275 6.5 7.675 6.5 7.975 6.8L13.875 12.8L16.675 15.7C16.775 15.9 16.875 16.1 16.875 16.3C16.875 16.5 16.775 16.7 16.575 16.8C15.175 17.9 13.475 18.5 11.775 18.5ZM4.575 11.8C5.275 12.9 7.875 17 11.775 17C12.875 17 13.975 16.7 14.975 16.1L13.275 14.4C13.175 14.5 13.075 14.5 12.975 14.6C12.575 14.8 12.175 14.9 11.875 14.9C11.475 14.9 11.075 14.8 10.675 14.7C10.275 14.5 9.975 14.3 9.675 14C9.375 13.7 9.175 13.4 9.075 13C8.775 12.5 8.775 12.2 8.775 11.8C8.775 11.4 8.875 11 8.975 10.6C9.075 10.5 9.075 10.3 9.175 10.2L7.375 8.3C6.275 9.3 5.275 10.4 4.575 11.8ZM10.275 11.4C10.275 11.5 10.175 11.7 10.175 11.8C10.175 12 10.175 12.2 10.275 12.4C10.375 12.6 10.475 12.8 10.575 12.9C10.775 13 10.975 13.1 11.175 13.2C11.375 13.3 11.575 13.3 11.775 13.3C11.875 13.3 12.075 13.3 12.175 13.2L10.275 11.4ZM18.175 14.9C17.975 14.9 17.875 14.8 17.675 14.7C17.375 14.4 17.275 14 17.575 13.6C18.075 13 18.475 12.4 18.875 11.7C18.175 10.5 15.675 6.5 11.775 6.5C11.275 6.5 10.875 6.6 10.375 6.7C9.975 6.8 9.575 6.5 9.475 6.1C9.375 5.7 9.575 5.3 9.975 5.2C10.575 5.1 11.175 5 11.675 5C17.175 5 20.175 11.2 20.375 11.4C20.475 11.6 20.475 11.9 20.375 12.1C19.875 13 19.375 13.8 18.675 14.6C18.575 14.8 18.375 14.9 18.175 14.9Z" fill="#1E2449"/>
<path d="M19.725 20.525C19.525 20.525 19.325 20.425 19.225 20.325L3.225 4.325C2.925 4.025 2.925 3.525 3.225 3.225C3.525 2.925 4.025 2.925 4.325 3.225L20.325 19.225C20.625 19.525 20.625 20.025 20.325 20.325C20.025 20.425 19.825 20.525 19.725 20.525Z" fill="#1E2449"/>
</g>
<defs>
<clipPath id="clip0_314_12809">
<rect width="17.5" height="17.5" fill="white" transform="translate(3 3)"/>
</clipPath>
</defs>
</svg>
