<svg width="40" height="40" viewBox="0 0 40 40" fill="none" xmlns="http://www.w3.org/2000/svg">
<path fill-rule="evenodd" clip-rule="evenodd" d="M19.4697 19.4697C19.7626 19.1768 20.2374 19.1768 20.5303 19.4697L26.5303 25.4697C26.8232 25.7626 26.8232 26.2374 26.5303 26.5303C26.2374 26.8232 25.7626 26.8232 25.4697 26.5303L20 21.0607L14.5303 26.5303C14.2374 26.8232 13.7626 26.8232 13.4697 26.5303C13.1768 26.2374 13.1768 25.7626 13.4697 25.4697L19.4697 19.4697Z" fill="#1E293B"/>
<path fill-rule="evenodd" clip-rule="evenodd" d="M20 19.25C20.4142 19.25 20.75 19.5858 20.75 20V34C20.75 34.4142 20.4142 34.75 20 34.75C19.5858 34.75 19.25 34.4142 19.25 34V20C19.25 19.5858 19.5858 19.25 20 19.25Z" fill="#1E293B"/>
<path fill-rule="evenodd" clip-rule="evenodd" d="M14.8794 5.25898C16.8613 5.18528 18.8337 5.56603 20.6482 6.37233C22.4628 7.17862 24.072 8.38933 25.3552 9.91293C26.5129 11.2874 27.3781 12.8843 27.9003 14.6044H29.2785C31.1636 14.6056 32.9942 15.2405 34.4807 16.4075C35.9669 17.5745 37.0247 19.2067 37.4885 21.0459C37.9523 22.885 37.7961 24.8277 37.0444 26.5676C36.2925 28.3077 34.9874 29.747 33.3334 30.6571C32.9705 30.8568 32.5144 30.7245 32.3147 30.3616C32.1151 29.9987 32.2474 29.5426 32.6103 29.3429C33.9707 28.5943 35.0468 27.409 35.6674 25.9727C36.288 24.5363 36.4171 22.9318 36.034 21.4127C35.651 19.8937 34.778 18.5481 33.5543 17.5874C32.331 16.6269 30.8266 16.1055 29.2785 16.1044M29.2785 16.1044H27.3314C26.9889 16.1044 26.6899 15.8723 26.6049 15.5405C26.165 13.8233 25.3454 12.2297 24.208 10.8792C23.0706 9.52878 21.6451 8.45671 20.0392 7.7431C18.4332 7.02949 16.6882 6.69275 14.9352 6.75794C13.1822 6.82313 11.4664 7.28857 9.91662 8.11961C8.36684 8.95067 7.02326 10.1259 5.98728 11.5573C4.95128 12.9888 4.24995 14.6391 3.93647 16.3844C3.62298 18.1297 3.7056 19.924 4.17803 21.6323C4.65046 23.3406 5.50029 24.918 6.66314 26.2462C6.936 26.5578 6.90456 27.0316 6.59292 27.3045C6.28128 27.5774 5.80745 27.5459 5.53459 27.2343C4.22259 25.7358 3.26465 23.9571 2.7323 22.0322C2.19994 20.1072 2.1069 18.0856 2.46009 16.1192C2.81329 14.1529 3.60363 12.2924 4.77213 10.6779C5.94066 9.06327 7.45707 7.73647 9.20774 6.79768C10.9584 5.85888 12.8976 5.33268 14.8794 5.25898" fill="#1E293B"/>
</svg>
