<svg width="16" height="16" viewBox="0 0 16 16" fill="none" xmlns="http://www.w3.org/2000/svg">
<path d="M8.08301 6.85254C8.08301 7.03809 8.06055 7.22168 8.01562 7.40332C7.97266 7.58301 7.90625 7.74609 7.81641 7.89258C7.72656 8.03711 7.61328 8.15332 7.47656 8.24121C7.3418 8.32715 7.18164 8.37012 6.99609 8.37012C6.84961 8.37012 6.71973 8.33496 6.60645 8.26465C6.49512 8.19434 6.41699 8.10352 6.37207 7.99219H6.3252C6.24316 8.0918 6.13574 8.17969 6.00293 8.25586C5.87012 8.33203 5.70898 8.37012 5.51953 8.37012C5.16211 8.37012 4.88672 8.26367 4.69336 8.05078C4.5 7.83594 4.40332 7.55469 4.40332 7.20703C4.40332 6.9375 4.46094 6.7002 4.57617 6.49512C4.69141 6.28809 4.85547 6.12598 5.06836 6.00879C5.28125 5.8916 5.53223 5.83301 5.82129 5.83301C6.01074 5.83301 6.20508 5.85059 6.4043 5.88574C6.60547 5.91895 6.7627 5.95508 6.87598 5.99414L6.81738 7.22461C6.81348 7.26562 6.81055 7.30664 6.80859 7.34766C6.80859 7.38867 6.80859 7.41504 6.80859 7.42676C6.80859 7.59277 6.83105 7.70312 6.87598 7.75781C6.92285 7.81055 6.97461 7.83691 7.03125 7.83691C7.12109 7.83691 7.19629 7.79199 7.25684 7.70215C7.31738 7.6123 7.36328 7.49219 7.39453 7.3418C7.42578 7.19141 7.44141 7.02637 7.44141 6.84668C7.44141 6.5127 7.37305 6.22852 7.23633 5.99414C7.10156 5.75781 6.91602 5.57812 6.67969 5.45508C6.44531 5.33008 6.17871 5.26758 5.87988 5.26758C5.56543 5.26758 5.28809 5.31738 5.04785 5.41699C4.80762 5.5166 4.60547 5.65625 4.44141 5.83594C4.2793 6.01562 4.15625 6.22754 4.07227 6.47168C3.99023 6.71582 3.94922 6.98242 3.94922 7.27148C3.94922 7.63086 4.01367 7.93555 4.14258 8.18555C4.27148 8.43555 4.46094 8.625 4.71094 8.75391C4.96289 8.88281 5.27051 8.94727 5.63379 8.94727C5.86621 8.94727 6.10742 8.92188 6.35742 8.87109C6.60938 8.81836 6.83984 8.75293 7.04883 8.6748V9.24023C6.85742 9.32031 6.64355 9.38379 6.40723 9.43066C6.1709 9.47949 5.9209 9.50391 5.65723 9.50391C5.16113 9.50391 4.7373 9.41602 4.38574 9.24023C4.03418 9.06445 3.76465 8.81152 3.57715 8.48145C3.3916 8.14941 3.29883 7.75195 3.29883 7.28906C3.29883 6.92578 3.3584 6.58887 3.47754 6.27832C3.59863 5.96582 3.77148 5.69336 3.99609 5.46094C4.2207 5.22656 4.49121 5.04395 4.80762 4.91309C5.12598 4.78223 5.48145 4.7168 5.87402 4.7168C6.30176 4.7168 6.68164 4.80371 7.01367 4.97754C7.34766 5.14941 7.60938 5.39453 7.79883 5.71289C7.98828 6.03125 8.08301 6.41113 8.08301 6.85254ZM5.08301 7.21875C5.08301 7.4375 5.12793 7.5957 5.21777 7.69336C5.30957 7.78906 5.43262 7.83691 5.58691 7.83691C5.78809 7.83691 5.92969 7.76367 6.01172 7.61719C6.09375 7.4707 6.1416 7.2793 6.15527 7.04297L6.19336 6.39551C6.14844 6.38574 6.09766 6.37891 6.04102 6.375C5.98438 6.36914 5.92285 6.36621 5.85645 6.36621C5.66699 6.36621 5.51562 6.4082 5.40234 6.49219C5.28906 6.57422 5.20703 6.68066 5.15625 6.81152C5.10742 6.94043 5.08301 7.07617 5.08301 7.21875ZM11.3115 6.52734L11.1738 7.20703H11.9297V7.81055H11.0596L10.834 9H10.1895L10.418 7.81055H9.84961L9.62695 9H8.99707L9.21387 7.81055H8.5166V7.20703H9.32812L9.46582 6.52734H8.72754V5.91504H9.57422L9.7998 4.72266H10.4414L10.2158 5.91504H10.7959L11.0244 4.72266H11.6543L11.4258 5.91504H12.1289V6.52734H11.3115ZM9.96387 7.20703H10.5381L10.6758 6.52734H10.1016L9.96387 7.20703Z" fill="#64748B"/>
<circle cx="8" cy="8" r="7.5" stroke="#64748B"/>
<path d="M4.36383 12.3633H11.6366" stroke="#64748B" stroke-linecap="round"/>
</svg>
