<svg width="16" height="16" viewBox="0 0 16 16" fill="none" xmlns="http://www.w3.org/2000/svg">
<path d="M5.01562 5.89648L4.89551 6.97461L5.98828 6.66992L6.08496 7.4082L5.08887 7.47852L5.74219 8.34863L5.07715 8.70312L4.62012 7.78613L4.21875 8.69727L3.52734 8.34863L4.1748 7.47852L3.18457 7.40234L3.29883 6.66992L4.36816 6.97461L4.24805 5.89648H5.01562ZM8.28516 5.89648L8.16504 6.97461L9.25781 6.66992L9.35449 7.4082L8.3584 7.47852L9.01172 8.34863L8.34668 8.70312L7.88965 7.78613L7.48828 8.69727L6.79688 8.34863L7.44434 7.47852L6.4541 7.40234L6.56836 6.66992L7.6377 6.97461L7.51758 5.89648H8.28516ZM11.5547 5.89648L11.4346 6.97461L12.5273 6.66992L12.624 7.4082L11.6279 7.47852L12.2812 8.34863L11.6162 8.70312L11.1592 7.78613L10.7578 8.69727L10.0664 8.34863L10.7139 7.47852L9.72363 7.40234L9.83789 6.66992L10.9072 6.97461L10.7871 5.89648H11.5547Z" fill="#64748B"/>
<circle cx="8" cy="8" r="7.5" stroke="#64748B"/>
<path d="M5.81842 12.3633H10.5457" stroke="#64748B" stroke-linecap="round"/>
</svg>
