<svg width="16" height="16" viewBox="0 0 16 16" fill="none" xmlns="http://www.w3.org/2000/svg">
<path d="M7.16113 9L6.85059 7.98047H5.28906L4.97852 9H4L5.51172 4.69922H6.62207L8.13965 9H7.16113ZM6.63379 7.21875L6.32324 6.22266C6.30371 6.15625 6.27734 6.07129 6.24414 5.96777C6.21289 5.8623 6.18066 5.75586 6.14746 5.64844C6.11621 5.53906 6.09082 5.44434 6.07129 5.36426C6.05176 5.44434 6.02441 5.54395 5.98926 5.66309C5.95605 5.78027 5.92383 5.8916 5.89258 5.99707C5.86133 6.10254 5.83887 6.17773 5.8252 6.22266L5.51758 7.21875H6.63379ZM9.95312 5.65723C10.3926 5.65723 10.7295 5.75293 10.9639 5.94434C11.1982 6.13574 11.3154 6.42676 11.3154 6.81738V9H10.6914L10.5186 8.55469H10.4951C10.4014 8.67188 10.3057 8.76758 10.208 8.8418C10.1104 8.91602 9.99805 8.9707 9.87109 9.00586C9.74414 9.04102 9.58984 9.05859 9.4082 9.05859C9.21484 9.05859 9.04102 9.02148 8.88672 8.94727C8.73438 8.87305 8.61426 8.75977 8.52637 8.60742C8.43848 8.45312 8.39453 8.25781 8.39453 8.02148C8.39453 7.67383 8.5166 7.41797 8.76074 7.25391C9.00488 7.08789 9.37109 6.99609 9.85938 6.97852L10.4277 6.96094V6.81738C10.4277 6.64551 10.3828 6.51953 10.293 6.43945C10.2031 6.35938 10.0781 6.31934 9.91797 6.31934C9.75977 6.31934 9.60449 6.3418 9.45215 6.38672C9.2998 6.43164 9.14746 6.48828 8.99512 6.55664L8.69922 5.95312C8.87305 5.86133 9.06738 5.78906 9.28223 5.73633C9.49902 5.68359 9.72266 5.65723 9.95312 5.65723ZM10.4277 7.48242L10.082 7.49414C9.79297 7.50195 9.5918 7.55371 9.47852 7.64941C9.36719 7.74512 9.31152 7.87109 9.31152 8.02734C9.31152 8.16406 9.35156 8.26172 9.43164 8.32031C9.51172 8.37695 9.61621 8.40527 9.74512 8.40527C9.93652 8.40527 10.0977 8.34863 10.2285 8.23535C10.3613 8.12207 10.4277 7.96094 10.4277 7.75195V7.48242Z" fill="#64748B"/>
<circle cx="8" cy="8" r="7.5" stroke="#64748B"/>
<path d="M4.36383 12.3633H11.6366" stroke="#64748B" stroke-linecap="round"/>
</svg>
