<svg width="40" height="40" viewBox="0 0 40 40" fill="none" xmlns="http://www.w3.org/2000/svg">
<path d="M26 26L20 20L14 26" stroke="#1E293B" stroke-width="1.5" stroke-linecap="round" stroke-linejoin="round"/>
<path d="M20 20V34" stroke="#1E293B" stroke-width="1.5" stroke-linecap="round" stroke-linejoin="round"/>
<path d="M32.9718 30C34.479 29.1707 35.6697 27.8583 36.3559 26.2702C37.0421 24.682 37.1847 22.9084 36.7613 21.2293C36.3378 19.5502 35.3725 18.0613 34.0175 16.9975C32.6625 15.9336 30.9952 15.3555 29.2785 15.3544H27.3314C26.8637 13.5284 25.9919 11.8331 24.7816 10.3961C23.5713 8.95906 22.054 7.81767 20.3437 7.05771C18.6334 6.29776 16.7747 5.93902 14.9073 6.00846C13.0399 6.0779 11.2124 6.57373 9.56218 7.45865C7.91196 8.34357 6.48196 9.59456 5.37971 11.1176C4.27745 12.6406 3.53162 14.396 3.19828 16.2518C2.86494 18.1077 2.95277 20.0156 3.45516 21.8322C3.95756 23.6489 4.86144 25.3269 6.09886 26.7402" stroke="#1E293B" stroke-width="1.5" stroke-linecap="round" stroke-linejoin="round"/>
</svg>
